<?xml version="1.0" standalone="no"?>
<!DOCTYPE svg PUBLIC "-//W3C//DTD SVG 20010904//EN"
 "http://www.w3.org/TR/2001/REC-SVG-20010904/DTD/svg10.dtd">
<svg version="1.0" xmlns="http://www.w3.org/2000/svg"
 width="1200.000000pt" height="1200.000000pt" viewBox="0 0 1200.000000 1200.000000"
 preserveAspectRatio="xMidYMid meet">
<metadata>
Created by potrace 1.11, written by Peter Selinger 2001-2013
</metadata>
<g transform="translate(0.000000,1200.000000) scale(0.100000,-0.100000)"
fill="#000000" stroke="none">
<path d="M0 6000 l0 -6000 6000 0 6000 0 0 6000 0 6000 -6000 0 -6000 0 0
-6000z m6868 4793 c471 -383 1411 -1147 2087 -1696 677 -550 1379 -1121 1562
-1270 l332 -270 -46 -54 c-26 -30 -52 -52 -59 -49 -14 6 18 -21 -1794 1451
-2690 2186 -2942 2390 -2950 2390 -9 0 -128 -96 -2174 -1759 -2219 -1803
-2557 -2077 -2570 -2082 -7 -3 -34 19 -59 49 l-46 54 682 555 c375 305 1256
1020 1957 1590 701 570 1482 1205 1735 1411 253 207 466 376 473 376 7 1 398
-313 870 -696z m496 -2053 c54 -12 87 -38 114 -90 20 -40 22 -59 22 -187 l0
-143 -1501 0 -1500 0 3 158 c3 156 3 159 31 195 30 40 55 56 102 68 45 10
2683 10 2729 -1z m136 -1564 l0 -1035 -26 -20 -27 -21 -1444 0 c-1458 0 -1473
0 -1495 34 -4 6 -8 476 -8 1044 l0 1032 1500 0 1500 0 0 -1034z m-4040 -2176
l0 -130 -50 0 -50 0 0 80 0 80 -50 0 -50 0 0 -255 0 -255 58 0 58 0 -1 -47 -1
-48 -172 -3 -172 -2 0 50 0 50 60 0 60 0 0 255 0 255 -50 0 -50 0 0 -80 0 -80
-50 0 -50 0 0 130 0 130 255 0 255 0 0 -130z m2680 -77 l1 -208 102 108 102
108 73 -1 c39 0 72 -3 72 -7 0 -4 -50 -58 -112 -120 l-111 -112 116 -130 c65
-71 117 -132 117 -135 0 -3 -31 -6 -69 -6 l-69 0 -72 88 c-108 129 -96 120
-125 92 -23 -21 -25 -31 -25 -102 l0 -78 -55 0 -55 0 0 355 0 355 55 0 55 0 0
-207z m1510 157 l0 -50 -60 0 -60 0 0 -255 0 -255 60 0 60 0 0 -50 0 -50 -175
0 -175 0 0 50 0 50 60 0 60 0 0 255 0 255 -60 0 -60 0 0 50 0 50 175 0 175 0
0 -50z m-3745 -151 c22 -6 55 -22 73 -35 58 -45 62 -62 62 -279 l0 -195 -55 0
-55 0 0 36 0 36 -33 -29 c-93 -82 -276 -64 -321 31 -65 137 57 246 277 246 70
0 77 2 77 19 0 11 -10 32 -23 47 -41 47 -137 44 -257 -10 -12 -5 -22 4 -38 33
-12 21 -22 41 -22 45 0 10 57 36 112 50 65 18 149 20 203 5z m774 0 c18 -6 30
-16 28 -23 -37 -92 -40 -97 -56 -90 -9 4 -38 9 -66 11 -71 6 -132 -26 -162
-87 -19 -36 -23 -61 -23 -132 l0 -88 55 0 55 0 0 -50 0 -50 -170 0 -170 0 0
50 0 50 55 0 c42 0 55 4 56 15 0 8 1 71 1 140 0 69 -1 132 -1 140 -1 11 -14
15 -56 15 l-55 0 0 50 0 50 115 0 115 0 0 -57 0 -56 29 40 c25 35 57 56 111
76 27 10 106 7 139 -4z m446 0 c22 -6 55 -22 73 -35 58 -45 62 -62 62 -279 l0
-195 -55 0 -55 0 0 36 0 36 -33 -29 c-93 -82 -276 -64 -321 31 -65 137 57 246
277 246 70 0 77 2 77 19 0 11 -10 32 -23 47 -41 47 -137 44 -257 -10 -12 -5
-22 4 -38 33 -12 21 -22 41 -22 45 0 10 57 36 112 50 65 18 149 20 203 5z
m630 -5 c33 -8 70 -22 83 -30 l22 -15 -22 -39 c-26 -45 -28 -46 -69 -24 -76
39 -240 24 -247 -23 -4 -30 14 -38 142 -62 172 -33 222 -69 220 -160 -1 -94
-72 -148 -208 -158 -39 -3 -96 0 -126 6 -68 14 -160 50 -160 63 0 10 39 88 44
88 2 0 29 -11 59 -26 105 -47 267 -41 275 12 5 32 -17 43 -134 65 -167 31
-214 60 -229 142 -24 128 157 212 350 161z m1218 -4 c101 -38 156 -125 157
-245 0 -122 -62 -213 -169 -250 -86 -29 -198 -13 -266 39 -117 90 -128 294
-20 401 73 73 191 95 298 55z m1264 -6 c66 -50 68 -56 71 -285 l3 -209 -54 0
-55 0 -4 190 c-4 221 -5 225 -89 225 -45 0 -54 -4 -84 -37 -46 -49 -55 -91
-55 -245 l0 -133 -55 0 -55 0 0 255 0 255 55 0 55 0 0 -57 0 -58 25 41 c34 57
93 86 163 81 32 -2 63 -12 79 -23z m511 11 c20 -9 45 -26 54 -38 l18 -22 0 33
c0 32 0 32 50 32 l50 0 0 -120 0 -120 -49 0 -48 0 -7 38 c-23 146 -225 144
-266 -2 -39 -139 74 -245 220 -207 25 6 58 21 74 33 l29 21 19 -24 c41 -53 41
-56 -2 -88 -114 -83 -327 -60 -406 44 -54 71 -69 177 -39 266 44 128 188 201
303 154z m-6887 -826 c327 -265 711 -577 854 -694 750 -609 2213 -1798 2370
-1926 533 -434 910 -739 915 -739 3 0 363 291 800 646 437 355 1369 1112 2070
1682 701 570 1407 1143 1569 1275 162 131 299 241 306 243 12 5 95 -85 95
-103 0 -6 -138 -122 -307 -259 -170 -138 -729 -592 -1243 -1010 -2452 -1993
-3281 -2664 -3290 -2664 -6 0 -212 163 -458 363 -496 403 -2657 2159 -3522
2862 -305 248 -624 506 -707 574 -84 68 -153 128 -153 133 0 18 83 109 95 105
6 -3 279 -222 606 -488z"/>
<path d="M5372 7714 c-14 -10 -22 -25 -22 -45 0 -26 25 -56 160 -195 88 -90
160 -167 160 -172 0 -4 -74 -78 -165 -165 -138 -132 -165 -163 -165 -187 0
-36 24 -60 58 -59 21 0 72 44 236 204 l210 203 -189 197 c-244 254 -239 250
-283 219z"/>
<path d="M5837 6982 c-22 -24 -21 -55 1 -75 17 -15 61 -17 434 -17 389 0 416
1 431 18 22 24 21 55 -1 75 -17 15 -61 17 -434 17 -389 0 -416 -1 -431 -18z"/>
<path d="M3735 4635 c-102 -36 -79 -126 32 -125 46 1 107 22 133 45 25 23 36
75 19 86 -22 14 -140 10 -184 -6z"/>
<path d="M4955 4635 c-102 -36 -79 -126 32 -125 46 1 107 22 133 45 25 23 36
75 19 86 -22 14 -140 10 -184 -6z"/>
<path d="M6805 4826 c-124 -57 -123 -250 2 -302 74 -32 159 0 194 72 52 107
-11 230 -122 240 -25 3 -57 -2 -74 -10z"/>
</g>
</svg>
